<svg id="Layer_1" data-name="Layer 1" xmlns="http://www.w3.org/2000/svg" viewBox="0 0 216 216"><defs><style>.cls-1,.cls-3{fill:none;stroke:#50bcaa;stroke-miterlimit:10;}.cls-1{stroke-width:2.7px;}.cls-2{font-size:17px;fill:#1b7064;font-family:Gotham-Medium, Gotham;font-weight:500;}.cls-3{stroke-width:2.7px;}</style></defs><path class="cls-1" d="M91.78,124.91a97.76,97.76,0,0,0,7,8.67c7.16,7.89,11.89,10.47,13.27,11.19,4.17,2.17,6.36,3.42,7.73,2.41,2.51-1.86,1.86-11.87-2.13-22.43-.07-.19,0,0-.24-.8a124.5,124.5,0,0,0-23.78-43.4c-.49-.58-1-1.15-1.43-1.68-4-4.78-8.46-8.7-12.72-10h-.06a5.82,5.82,0,0,0-5.21,1A41.93,41.93,0,0,0,70,73.64c-13.22,13.59-19.85,26.55-18.51,26.94h0a23.22,23.22,0,0,0,11.86-3.26c8.5-5.47,17.94-14.63,19.44-16.1"/><path class="cls-1" d="M90.76,78.58a37.64,37.64,0,0,0-4.58,10.19c-3.46,12.42-1.7,23.18.1,27.32"/><path class="cls-1" d="M117,126.33a37.81,37.81,0,0,0,4.57-10.19c3.47-12.42,1.71-23.18-.1-27.32"/><path class="cls-1" d="M117.73,124.91a97.76,97.76,0,0,1-7,8.67c-7.16,7.89-11.89,10.47-13.27,11.19-4.17,2.17-6.36,3.42-7.73,2.41-2.51-1.86-1.86-11.87,2.13-22.43.07-.19,0,0,.24-.8a124.5,124.5,0,0,1,23.78-43.4c.49-.58,1-1.15,1.43-1.68,4-4.78,8.46-8.7,12.72-10h.06a5.82,5.82,0,0,1,5.21,1,41.93,41.93,0,0,1,4.25,3.8c13.22,13.59,19.85,26.55,18.51,26.94h0a23.22,23.22,0,0,1-11.86-3.26c-8.5-5.47-17.94-14.63-19.44-16.1"/><text class="cls-2" transform="translate(73.2 170.37) scale(1.14 1)">MANA</text><path class="cls-3" d="M118.06,61.83a26.33,26.33,0,0,1-.75,6.27A17.05,17.05,0,0,0,104.17,62c-4.63,0-8.93,2.18-12.49,5.91a31.64,31.64,0,0,1-.59-6.1c0-11.44,13.48-20.72,13.48-20.72S118.06,50.39,118.06,61.83Z"/></svg>